<svg width="1279" height="463" viewBox="0 0 1279 463" fill="none" xmlns="http://www.w3.org/2000/svg">
<line x1="23.9984" y1="264" x2="1256" y2="263" stroke="black" stroke-width="4"/>
<rect x="564" y="191" width="150.55" height="150.55" rx="75.275" fill="#FF9E02"/>
<path d="M645.26 249.321C627.357 249.744 612.995 263.904 612.182 281.932C612.167 282.261 612.169 282.592 612.132 282.919C612.092 283.256 611.974 283.617 611.6 283.653C611.037 283.708 610.99 283.228 611.001 282.842C611.037 281.655 611.056 280.464 611.191 279.286C613.093 262.893 626.323 249.83 642.716 248.141C655.328 246.841 665.819 254.651 667.76 267.019C668.858 274.024 666.145 279.132 660.474 282.406C657.648 284.035 654.16 284.607 650.747 283.209C646.181 281.339 644.096 275.45 646.807 271.755C648.078 270.022 649.833 269.254 651.975 269.524C653.488 269.712 654.224 270.758 654.575 272.135C654.658 272.462 654.633 272.822 654.269 272.985C653.879 273.16 653.623 272.921 653.528 272.577C653.165 271.273 652.379 270.406 650.982 270.637C649.382 270.903 647.989 271.625 647.261 273.239C645.506 277.13 648.705 282.191 653.229 282.669C659.612 283.345 666.037 278.037 666.607 271.618C667.715 259.185 657.983 249.021 645.26 249.322V249.321Z" fill="#60BFBA" stroke="white" stroke-width="2" stroke-miterlimit="10"/>
<circle cx="944.429" cy="373.208" r="67.5147" fill="#60BFBA"/>
<circle cx="686.787" cy="42.6817" r="42.6817" fill="#584F9D"/>
<circle cx="356.974" cy="305.693" r="23.2809" fill="#DEC8FE"/>
<circle cx="279.371" cy="408.129" r="54.3222" fill="#007A75"/>
<circle cx="1047.64" cy="159.799" r="54.3222" fill="#9B84EE"/>
<circle cx="886.227" cy="66.7388" r="18.6247" fill="#007A75"/>
<circle cx="862.17" cy="190.065" r="13.1925" fill="#584F9D"/>
<circle cx="1254.06" cy="263.057" r="24.057" fill="black"/>
<circle cx="24.057" cy="263.012" r="23.557" fill="black" stroke="black"/>
<circle cx="412.848" cy="117.957" r="32.5933" fill="#FCBF1B"/>
<path d="M192.732 120.151C194.027 116.359 199.266 116.244 200.803 119.806L200.933 120.153L202.681 125.266C203.082 126.439 203.729 127.512 204.58 128.413C205.431 129.314 206.465 130.023 207.612 130.49L208.083 130.666L213.196 132.412C216.988 133.708 217.102 138.947 213.543 140.483L213.196 140.613L208.083 142.361C206.91 142.762 205.836 143.409 204.935 144.26C204.033 145.111 203.324 146.145 202.857 147.293L202.681 147.761L200.935 152.876C199.639 156.668 194.4 156.783 192.866 153.223L192.732 152.876L190.985 147.763C190.585 146.59 189.938 145.516 189.087 144.615C188.236 143.713 187.202 143.005 186.054 142.537L185.586 142.361L180.473 140.615C176.679 139.319 176.564 134.08 180.126 132.546L180.473 132.412L185.586 130.666C186.759 130.265 187.832 129.617 188.733 128.767C189.634 127.916 190.342 126.882 190.81 125.734L190.985 125.266L192.732 120.151ZM196.833 121.551L195.087 126.664C194.477 128.452 193.484 130.086 192.178 131.451C190.872 132.817 189.285 133.881 187.525 134.57L186.984 134.767L181.87 136.514L186.984 138.26C188.772 138.87 190.405 139.863 191.771 141.169C193.136 142.474 194.201 144.062 194.89 145.822L195.087 146.363L196.833 151.477L198.58 146.363C199.19 144.575 200.182 142.941 201.488 141.576C202.794 140.211 204.382 139.146 206.141 138.457L206.683 138.262L211.796 136.514L206.683 134.767C204.895 134.157 203.261 133.164 201.896 131.859C200.53 130.553 199.466 128.965 198.777 127.206L198.582 126.664L196.833 121.551ZM214.167 112.68C214.572 112.68 214.969 112.794 215.313 113.008C215.657 113.223 215.934 113.53 216.112 113.894L216.216 114.147L216.975 116.37L219.2 117.128C219.606 117.266 219.962 117.522 220.223 117.862C220.484 118.203 220.638 118.613 220.665 119.042C220.692 119.47 220.592 119.896 220.377 120.267C220.161 120.638 219.841 120.937 219.455 121.126L219.2 121.23L216.977 121.988L216.218 124.213C216.08 124.619 215.825 124.975 215.484 125.236C215.143 125.497 214.733 125.65 214.305 125.677C213.876 125.705 213.45 125.604 213.079 125.388C212.708 125.173 212.409 124.852 212.221 124.467L212.117 124.213L211.359 121.99L209.133 121.232C208.727 121.094 208.371 120.839 208.11 120.498C207.849 120.157 207.696 119.747 207.668 119.319C207.641 118.891 207.741 118.464 207.957 118.093C208.172 117.722 208.492 117.423 208.878 117.235L209.133 117.131L211.356 116.372L212.115 114.147C212.261 113.719 212.537 113.347 212.905 113.084C213.273 112.821 213.714 112.68 214.167 112.68Z" fill="#E4E4EB"/>
</svg>
