<svg width="59" height="38" viewBox="0 0 59 38" fill="none" xmlns="http://www.w3.org/2000/svg">
<path d="M35.2597 2.32052C17.357 2.74384 2.99513 16.9036 2.18223 34.9317C2.16721 35.2609 2.16909 35.592 2.13154 35.9194C2.09211 36.2562 1.97384 36.6174 1.60024 36.6532C1.03703 36.7077 0.990095 36.228 1.00136 35.8423C1.03703 34.6551 1.0558 33.4641 1.19097 32.2863C3.09275 15.8933 16.3226 2.83039 32.7158 1.14085C45.328 -0.159231 55.8188 7.65066 57.76 20.0193C58.8583 27.0239 56.1455 32.1321 50.4739 35.4058C47.6485 37.0351 44.1603 37.6071 40.7473 36.2092C36.1815 34.339 34.0957 28.4501 36.8066 24.7549C38.0776 23.0221 39.833 22.2545 41.9751 22.5235C43.4882 22.7117 44.2242 23.7577 44.5752 25.135C44.6578 25.4623 44.6334 25.8217 44.2692 25.9854C43.8787 26.1603 43.6234 25.9214 43.5276 25.5771C43.1653 24.2733 42.3787 23.4059 40.9819 23.6373C39.3824 23.9026 37.9894 24.6251 37.261 26.2394C35.5056 30.1302 38.7047 35.1913 43.2291 35.6692C49.6122 36.3446 56.0366 31.0371 56.6073 24.6176C57.715 12.185 47.9827 2.02137 35.2597 2.3224V2.32052Z" fill="#60BFBA" stroke="white" stroke-width="2" stroke-miterlimit="10"/>
</svg>
